<svg width="24" height="24" viewBox="0 0 24 24" fill="none" xmlns="http://www.w3.org/2000/svg">
<path fill-rule="evenodd" clip-rule="evenodd" d="M21.5984 11.9984C21.5984 17.3004 17.3004 21.5984 11.9984 21.5984C6.6965 21.5984 2.39844 17.3004 2.39844 11.9984C2.39844 6.6965 6.6965 2.39844 11.9984 2.39844C17.3004 2.39844 21.5984 6.6965 21.5984 11.9984ZM11.9985 8.39844C11.5558 8.39844 11.1676 8.6375 10.9583 8.99931C10.6264 9.57298 9.89233 9.76902 9.31866 9.43716C8.74499 9.10531 8.54895 8.37124 8.8808 7.79757C9.50145 6.72466 10.6644 5.99844 11.9985 5.99844C13.9867 5.99844 15.5985 7.61021 15.5985 9.59844C15.5985 11.1659 14.5967 12.4994 13.1985 12.9936V13.1984C13.1985 13.8612 12.6612 14.3984 11.9985 14.3984C11.3357 14.3984 10.7985 13.8612 10.7985 13.1984V11.9984C10.7985 11.3357 11.3357 10.7984 11.9985 10.7984C12.6612 10.7984 13.1985 10.2612 13.1985 9.59844C13.1985 8.9357 12.6612 8.39844 11.9985 8.39844ZM11.9984 17.9984C12.6612 17.9984 13.1984 17.4612 13.1984 16.7984C13.1984 16.1357 12.6612 15.5984 11.9984 15.5984C11.3357 15.5984 10.7984 16.1357 10.7984 16.7984C10.7984 17.4612 11.3357 17.9984 11.9984 17.9984Z" fill="#3D9635"/>
</svg>
