<svg width="16" height="16" viewBox="0 0 16 16" fill="none" xmlns="http://www.w3.org/2000/svg">
<path d="M11.3327 3.30732V8.05398C11.3327 9.38065 10.3927 9.89398 9.23935 9.20065L8.35935 8.66732C8.15935 8.54732 7.83935 8.54732 7.63935 8.66732L6.75935 9.20065C5.60602 9.89398 4.66602 9.38065 4.66602 8.05398V3.32732C4.67268 2.00065 5.33935 1.33398 6.66602 1.33398H9.33268C10.6527 1.33398 11.3193 1.99398 11.3327 3.30732Z" fill="#5071EB"/>
<path d="M14.6673 7.93259V9.95259C14.6673 13.3193 13.334 14.6659 10.0007 14.6659H6.00065C2.66732 14.6659 1.33398 13.3193 1.33398 9.95259V7.93259C1.33398 6.13925 1.71398 4.91925 2.56732 4.17259C3.00065 3.80592 3.66732 4.12592 3.66732 4.69259V8.05259C3.66732 9.04592 4.07398 9.84592 4.78065 10.2459C5.49398 10.6526 6.40065 10.5793 7.28065 10.0526L8.00065 9.61925L8.72732 10.0526C9.22065 10.3526 9.73398 10.5059 10.214 10.5059C10.574 10.5059 10.914 10.4193 11.2207 10.2459C11.9273 9.84592 12.334 9.04592 12.334 8.05259V4.68592C12.334 4.11925 13.0073 3.79925 13.434 4.17259C14.2873 4.91925 14.6673 6.13925 14.6673 7.93259Z" fill="#5071EB"/>
</svg>
