<svg width="20" height="20" viewBox="0 0 20 20" fill="none" xmlns="http://www.w3.org/2000/svg">
<path d="M13.493 1.66797H6.50964C3.4763 1.66797 1.66797 3.4763 1.66797 6.50964V13.4846C1.66797 16.5263 3.4763 18.3346 6.50964 18.3346H13.4846C16.518 18.3346 18.3263 16.5263 18.3263 13.493V6.50964C18.3346 3.4763 16.5263 1.66797 13.493 1.66797ZM9.58464 14.3763C9.58464 14.6763 9.28464 14.8763 9.00964 14.7596C8.0013 14.3263 6.68464 13.9263 5.76797 13.8096L5.60964 13.793C5.1013 13.7263 4.68464 13.2513 4.68464 12.7346V6.31797C4.68464 5.6763 5.2013 5.2013 5.83464 5.2513C6.8763 5.33464 8.41797 5.83464 9.38464 6.38463C9.51797 6.45964 9.58464 6.6013 9.58464 6.74297V14.3763ZM15.318 12.7263C15.318 13.243 14.9013 13.718 14.393 13.7846L14.218 13.8013C13.3096 13.9263 12.0013 14.318 10.993 14.743C10.718 14.8596 10.418 14.6596 10.418 14.3596V6.73464C10.418 6.58464 10.493 6.44297 10.6263 6.36797C11.593 5.8263 13.1013 5.34297 14.1263 5.2513H14.1596C14.8013 5.2513 15.318 5.76797 15.318 6.40964V12.7263Z" fill="#5071EB"/>
</svg>
