<svg width="18" height="18" viewBox="0 0 18 18" fill="none" xmlns="http://www.w3.org/2000/svg">
<path d="M16.5 3.50179V12.5543C16.5 13.2743 15.915 13.9493 15.195 14.0393L14.9475 14.0693C13.3125 14.2868 10.7925 15.1193 9.35248 15.9143C9.15748 16.0268 8.83501 16.0268 8.63251 15.9143L8.60248 15.8993C7.16248 15.1118 4.65002 14.2868 3.02252 14.0693L2.80499 14.0393C2.08499 13.9493 1.5 13.2743 1.5 12.5543V3.49428C1.5 2.60178 2.22748 1.92679 3.11998 2.00179C4.69498 2.12929 7.07998 2.92431 8.41498 3.75681L8.60248 3.86928C8.81998 4.00428 9.18002 4.00428 9.39752 3.86928L9.52501 3.78679C9.99751 3.49429 10.5975 3.20179 11.25 2.93929V5.9993L12.75 5.00179L14.25 5.9993V2.08432C14.4525 2.04682 14.6475 2.02429 14.8275 2.00929H14.8725C15.765 1.93429 16.5 2.60179 16.5 3.50179Z" stroke="white" stroke-width="1.5" stroke-linecap="round" stroke-linejoin="round"/>
<path d="M9 4.11719V15.3672" stroke="white" stroke-width="1.5" stroke-linecap="round" stroke-linejoin="round"/>
<path d="M14.25 2.08594V6.00092L12.75 5.0034L11.25 6.00092V2.9409C12.2325 2.5509 13.3275 2.23594 14.25 2.08594Z" stroke="white" stroke-width="1.5" stroke-linecap="round" stroke-linejoin="round"/>
</svg>
