<svg width="14" height="14" viewBox="0 0 14 14" fill="none" xmlns="http://www.w3.org/2000/svg">
<path d="M12.8333 2.82833V9.76417C12.8333 10.33 12.3725 10.8492 11.8067 10.9192L11.6258 10.9425C10.6692 11.0708 9.32167 11.4675 8.23667 11.9225C7.8575 12.08 7.4375 11.7942 7.4375 11.38V3.26583C7.4375 3.05 7.56 2.85167 7.7525 2.74667C8.82 2.16917 10.4358 1.65583 11.5325 1.5625H11.5675C12.2675 1.5625 12.8333 2.12833 12.8333 2.82833Z" fill="#5071EB"/>
<path d="M6.24682 2.74667C5.17932 2.16917 3.56349 1.65583 2.46682 1.5625H2.42599C1.72599 1.5625 1.16016 2.12833 1.16016 2.82833V9.76417C1.16016 10.33 1.62099 10.8492 2.18682 10.9192L2.36766 10.9425C3.32432 11.0708 4.67182 11.4675 5.75682 11.9225C6.13599 12.08 6.55599 11.7942 6.55599 11.38V3.26583C6.55599 3.04417 6.43932 2.85167 6.24682 2.74667ZM2.91599 4.51417H4.22849C4.46766 4.51417 4.66599 4.7125 4.66599 4.95167C4.66599 5.19667 4.46766 5.38917 4.22849 5.38917H2.91599C2.67682 5.38917 2.47849 5.19667 2.47849 4.95167C2.47849 4.7125 2.67682 4.51417 2.91599 4.51417ZM4.66599 7.13917H2.91599C2.67682 7.13917 2.47849 6.94667 2.47849 6.70167C2.47849 6.4625 2.67682 6.26417 2.91599 6.26417H4.66599C4.90516 6.26417 5.10349 6.4625 5.10349 6.70167C5.10349 6.94667 4.90516 7.13917 4.66599 7.13917Z" fill="#5071EB"/>
</svg>
