<svg width="16" height="16" viewBox="0 0 16 16" fill="none" xmlns="http://www.w3.org/2000/svg">
<path d="M11.3346 3.30536V8.05203C11.3346 9.3787 10.3946 9.89203 9.2413 9.1987L8.3613 8.66536C8.1613 8.54536 7.8413 8.54536 7.6413 8.66536L6.7613 9.1987C5.60797 9.89203 4.66797 9.3787 4.66797 8.05203V3.32536C4.67464 1.9987 5.3413 1.33203 6.66797 1.33203H9.33464C10.6546 1.33203 11.3213 1.99203 11.3346 3.30536Z" fill="#5071EB"/>
<path d="M14.6654 7.93259V9.95259C14.6654 13.3193 13.332 14.6659 9.9987 14.6659H5.9987C2.66536 14.6659 1.33203 13.3193 1.33203 9.95259V7.93259C1.33203 6.13925 1.71203 4.91925 2.56536 4.17259C2.9987 3.80592 3.66536 4.12592 3.66536 4.69259V8.05259C3.66536 9.04592 4.07203 9.84592 4.7787 10.2459C5.49203 10.6526 6.3987 10.5793 7.2787 10.0526L7.9987 9.61925L8.72536 10.0526C9.2187 10.3526 9.73203 10.5059 10.212 10.5059C10.572 10.5059 10.912 10.4193 11.2187 10.2459C11.9254 9.84592 12.332 9.04592 12.332 8.05259V4.68592C12.332 4.11925 13.0054 3.79925 13.432 4.17259C14.2854 4.91925 14.6654 6.13925 14.6654 7.93259Z" fill="#5071EB"/>
</svg>
