<svg width="16" height="16" viewBox="0 0 16 16" fill="none" xmlns="http://www.w3.org/2000/svg">
<path d="M14.0607 4.65302C13.494 4.02635 12.5473 3.71302 11.174 3.71302H11.014V3.68635C11.014 2.56635 11.014 1.17969 8.50734 1.17969H7.49401C4.98734 1.17969 4.98734 2.57302 4.98734 3.68635V3.71969H4.82734C3.44734 3.71969 2.50734 4.03302 1.94068 4.65969C1.28068 5.39302 1.30068 6.37969 1.36734 7.05302L1.37401 7.09969L1.41813 7.56297C1.4324 7.71274 1.51314 7.84819 1.6393 7.93016C1.79966 8.03436 2.02088 8.17536 2.16068 8.25302C2.25401 8.31302 2.35401 8.36635 2.45401 8.41969C3.59401 9.04635 4.84734 9.46635 6.12068 9.67302C6.18068 10.2997 6.45401 11.033 7.91401 11.033C9.37401 11.033 9.66068 10.3064 9.70734 9.65969C11.0673 9.43969 12.3807 8.96635 13.5673 8.27302C13.6073 8.25302 13.634 8.23302 13.6673 8.21302C13.9111 8.07525 14.1633 7.90799 14.3971 7.74138C14.5106 7.66051 14.5828 7.53427 14.5982 7.39576L14.6007 7.37302L14.634 7.05969C14.6407 7.01969 14.6407 6.98635 14.6473 6.93969C14.7007 6.26635 14.6873 5.34635 14.0607 4.65302ZM8.72734 9.21969C8.72734 9.92635 8.72734 10.033 7.90734 10.033C7.08734 10.033 7.08734 9.90635 7.08734 9.22635V8.38635H8.72734V9.21969ZM5.94068 3.71302V3.68635C5.94068 2.55302 5.94068 2.13302 7.49401 2.13302H8.50734C10.0607 2.13302 10.0607 2.55969 10.0607 3.68635V3.71969H5.94068V3.71302Z" fill="#5071EB"/>
<path d="M13.6481 9.2827C14.0028 9.11678 14.4102 9.39767 14.3748 9.78766L14.1625 12.1258C14.0225 13.4592 13.4758 14.8192 10.5425 14.8192H5.4625C2.52917 14.8192 1.9825 13.4592 1.8425 12.1325L1.64179 9.92467C1.60675 9.53921 2.00468 9.25866 2.3583 9.416C3.11803 9.75402 4.25853 10.237 5.0322 10.4531C5.19579 10.4988 5.32833 10.6173 5.40643 10.7681C5.82728 11.5809 6.68895 12.0125 7.91583 12.0125C9.13068 12.0125 10.0024 11.5642 10.4251 10.7483C10.5033 10.5974 10.6363 10.4789 10.7999 10.4328C11.6248 10.2004 12.8475 9.65717 13.6481 9.2827Z" fill="#5071EB"/>
</svg>
