<svg width="16" height="16" viewBox="0 0 16 16" fill="none" xmlns="http://www.w3.org/2000/svg">
<path d="M11.1681 2.37203V1.33203C11.1681 1.0587 10.9415 0.832031 10.6681 0.832031C10.3948 0.832031 10.1681 1.0587 10.1681 1.33203V2.33203H5.83479V1.33203C5.83479 1.0587 5.60812 0.832031 5.33479 0.832031C5.06145 0.832031 4.83479 1.0587 4.83479 1.33203V2.37203C3.03479 2.5387 2.16145 3.61203 2.02812 5.20536C2.01479 5.3987 2.17479 5.5587 2.36145 5.5587H13.6415C13.8348 5.5587 13.9948 5.39203 13.9748 5.20536C13.8415 3.61203 12.9681 2.5387 11.1681 2.37203Z" fill="#5071EB"/>
<path d="M13.3333 6.55859H2.66667C2.3 6.55859 2 6.85859 2 7.22526V11.3319C2 13.3319 3 14.6653 5.33333 14.6653H10.6667C13 14.6653 14 13.3319 14 11.3319V7.22526C14 6.85859 13.7 6.55859 13.3333 6.55859ZM6.14 12.1386C6.10667 12.1653 6.07333 12.1986 6.04 12.2186C6 12.2453 5.96 12.2653 5.92 12.2786C5.88 12.2986 5.84 12.3119 5.8 12.3186C5.75333 12.3253 5.71333 12.3319 5.66667 12.3319C5.58 12.3319 5.49333 12.3119 5.41333 12.2786C5.32667 12.2453 5.26 12.1986 5.19333 12.1386C5.07333 12.0119 5 11.8386 5 11.6653C5 11.4919 5.07333 11.3186 5.19333 11.1919C5.26 11.1319 5.32667 11.0853 5.41333 11.0519C5.53333 10.9986 5.66667 10.9853 5.8 11.0119C5.84 11.0186 5.88 11.0319 5.92 11.0519C5.96 11.0653 6 11.0853 6.04 11.1119C6.07333 11.1386 6.10667 11.1653 6.14 11.1919C6.26 11.3186 6.33333 11.4919 6.33333 11.6653C6.33333 11.8386 6.26 12.0119 6.14 12.1386ZM6.14 9.80526C6.01333 9.92526 5.84 9.99859 5.66667 9.99859C5.49333 9.99859 5.32 9.92526 5.19333 9.80526C5.07333 9.67859 5 9.50526 5 9.33193C5 9.15859 5.07333 8.98526 5.19333 8.85859C5.38 8.67193 5.67333 8.61193 5.92 8.71859C6.00667 8.75193 6.08 8.79859 6.14 8.85859C6.26 8.98526 6.33333 9.15859 6.33333 9.33193C6.33333 9.50526 6.26 9.67859 6.14 9.80526ZM8.47333 12.1386C8.34667 12.2586 8.17333 12.3319 8 12.3319C7.82667 12.3319 7.65333 12.2586 7.52667 12.1386C7.40667 12.0119 7.33333 11.8386 7.33333 11.6653C7.33333 11.4919 7.40667 11.3186 7.52667 11.1919C7.77333 10.9453 8.22667 10.9453 8.47333 11.1919C8.59333 11.3186 8.66667 11.4919 8.66667 11.6653C8.66667 11.8386 8.59333 12.0119 8.47333 12.1386ZM8.47333 9.80526C8.44 9.83193 8.40667 9.85859 8.37333 9.88526C8.33333 9.91193 8.29333 9.93193 8.25333 9.94526C8.21333 9.96526 8.17333 9.97859 8.13333 9.98526C8.08667 9.99193 8.04667 9.99859 8 9.99859C7.82667 9.99859 7.65333 9.92526 7.52667 9.80526C7.40667 9.67859 7.33333 9.50526 7.33333 9.33193C7.33333 9.15859 7.40667 8.98526 7.52667 8.85859C7.58667 8.79859 7.66 8.75193 7.74667 8.71859C7.99333 8.61193 8.28667 8.67193 8.47333 8.85859C8.59333 8.98526 8.66667 9.15859 8.66667 9.33193C8.66667 9.50526 8.59333 9.67859 8.47333 9.80526ZM10.8067 12.1386C10.68 12.2586 10.5067 12.3319 10.3333 12.3319C10.16 12.3319 9.98667 12.2586 9.86 12.1386C9.74 12.0119 9.66667 11.8386 9.66667 11.6653C9.66667 11.4919 9.74 11.3186 9.86 11.1919C10.1067 10.9453 10.56 10.9453 10.8067 11.1919C10.9267 11.3186 11 11.4919 11 11.6653C11 11.8386 10.9267 12.0119 10.8067 12.1386ZM10.8067 9.80526C10.7733 9.83193 10.74 9.85859 10.7067 9.88526C10.6667 9.91193 10.6267 9.93193 10.5867 9.94526C10.5467 9.96526 10.5067 9.97859 10.4667 9.98526C10.42 9.99193 10.3733 9.99859 10.3333 9.99859C10.16 9.99859 9.98667 9.92526 9.86 9.80526C9.74 9.67859 9.66667 9.50526 9.66667 9.33193C9.66667 9.15859 9.74 8.98526 9.86 8.85859C9.92667 8.79859 9.99333 8.75193 10.08 8.71859C10.2 8.66526 10.3333 8.65193 10.4667 8.67859C10.5067 8.68526 10.5467 8.69859 10.5867 8.71859C10.6267 8.73193 10.6667 8.75193 10.7067 8.77859C10.74 8.80526 10.7733 8.83193 10.8067 8.85859C10.9267 8.98526 11 9.15859 11 9.33193C11 9.50526 10.9267 9.67859 10.8067 9.80526Z" fill="#5071EB"/>
</svg>
