<svg width="16" height="16" viewBox="0 0 16 16" fill="none" xmlns="http://www.w3.org/2000/svg">
<path d="M11.1662 2.37398V1.33398C11.1662 1.06065 10.9395 0.833984 10.6662 0.833984C10.3928 0.833984 10.1662 1.06065 10.1662 1.33398V2.33398H5.83283V1.33398C5.83283 1.06065 5.60617 0.833984 5.33283 0.833984C5.0595 0.833984 4.83283 1.06065 4.83283 1.33398V2.37398C3.03284 2.54065 2.1595 3.61398 2.02617 5.20732C2.01284 5.40065 2.17284 5.56065 2.3595 5.56065H13.6395C13.8328 5.56065 13.9928 5.39398 13.9728 5.20732C13.8395 3.61398 12.9662 2.54065 11.1662 2.37398Z" fill="#5071EB"/>
<path d="M12.6667 10C11.1933 10 10 11.1933 10 12.6667C10 13.1667 10.14 13.64 10.3867 14.04C10.8467 14.8133 11.6933 15.3333 12.6667 15.3333C13.64 15.3333 14.4867 14.8133 14.9467 14.04C15.1933 13.64 15.3333 13.1667 15.3333 12.6667C15.3333 11.1933 14.14 10 12.6667 10ZM14.0467 12.38L12.6267 13.6933C12.5333 13.78 12.4067 13.8267 12.2867 13.8267C12.16 13.8267 12.0333 13.78 11.9333 13.68L11.2733 13.02C11.08 12.8267 11.08 12.5067 11.2733 12.3133C11.4667 12.12 11.7867 12.12 11.98 12.3133L12.3 12.6333L13.3667 11.6467C13.5667 11.46 13.8867 11.4733 14.0733 11.6733C14.26 11.8733 14.2467 12.1867 14.0467 12.38Z" fill="#5071EB"/>
<path d="M13.3333 6.56055H2.66667C2.3 6.56055 2 6.86055 2 7.22721V11.3339C2 13.3339 3 14.6672 5.33333 14.6672H8.62C9.08 14.6672 9.4 14.2205 9.25333 13.7872C9.12 13.4005 9.00667 12.9739 9.00667 12.6672C9.00667 10.6472 10.6533 9.00055 12.6733 9.00055C12.8667 9.00055 13.06 9.01388 13.2467 9.04721C13.6467 9.10721 14.0067 8.79388 14.0067 8.39388V7.23388C14 6.86055 13.7 6.56055 13.3333 6.56055ZM6.14 12.1405C6.01333 12.2605 5.84 12.3339 5.66667 12.3339C5.49333 12.3339 5.32 12.2605 5.19333 12.1405C5.07333 12.0139 5 11.8405 5 11.6672C5 11.4939 5.07333 11.3205 5.19333 11.1939C5.26 11.1339 5.32667 11.0872 5.41333 11.0539C5.66 10.9472 5.95333 11.0072 6.14 11.1939C6.26 11.3205 6.33333 11.4939 6.33333 11.6672C6.33333 11.8405 6.26 12.0139 6.14 12.1405ZM6.14 9.80721C6.10667 9.83388 6.07333 9.86055 6.04 9.88721C6 9.91388 5.96 9.93388 5.92 9.94721C5.88 9.96721 5.84 9.98055 5.8 9.98721C5.75333 9.99388 5.70667 10.0005 5.66667 10.0005C5.49333 10.0005 5.32 9.92721 5.19333 9.80721C5.07333 9.68055 5 9.50721 5 9.33388C5 9.16055 5.07333 8.98721 5.19333 8.86055C5.34667 8.70721 5.58 8.63388 5.8 8.68055C5.84 8.68721 5.88 8.70055 5.92 8.72055C5.96 8.73388 6 8.75388 6.04 8.78055C6.07333 8.80721 6.10667 8.83388 6.14 8.86055C6.26 8.98721 6.33333 9.16055 6.33333 9.33388C6.33333 9.50721 6.26 9.68055 6.14 9.80721ZM8.47333 9.80721C8.34667 9.92721 8.17333 10.0005 8 10.0005C7.82667 10.0005 7.65333 9.92721 7.52667 9.80721C7.40667 9.68055 7.33333 9.50721 7.33333 9.33388C7.33333 9.16055 7.40667 8.98721 7.52667 8.86055C7.78 8.61388 8.22667 8.61388 8.47333 8.86055C8.59333 8.98721 8.66667 9.16055 8.66667 9.33388C8.66667 9.50721 8.59333 9.68055 8.47333 9.80721Z" fill="#5071EB"/>
</svg>
