<svg width="25" height="25" viewBox="0 0 25 25" fill="none" xmlns="http://www.w3.org/2000/svg">
<path d="M22.8125 22.0391C22.8125 22.4619 22.4619 22.8125 22.0391 22.8125H2.96094C2.53813 22.8125 2.1875 22.4619 2.1875 22.0391C2.1875 21.6163 2.53813 21.2656 2.96094 21.2656H22.0391C22.4619 21.2656 22.8125 21.6163 22.8125 22.0391Z" fill="white"/>
<path d="M15.9953 4.78766L4.91969 15.8633C4.49688 16.2861 3.81625 16.2861 3.40375 15.8633H3.39344C1.96 14.4195 1.96 12.0889 3.39344 10.6555L10.7669 3.28203C12.2106 1.83828 14.5412 1.83828 15.985 3.28203C16.4078 3.68422 16.4078 4.37516 15.9953 4.78766Z" fill="white"/>
<path d="M21.595 8.88039L18.4497 5.73508C18.0269 5.31227 17.3462 5.31227 16.9337 5.73508L5.85812 16.8107C5.43531 17.2232 5.43531 17.9038 5.85812 18.3266L9.00344 21.4823C10.4472 22.9157 12.7778 22.9157 14.2216 21.4823L21.5847 14.1088C23.0491 12.6651 23.0491 10.3241 21.595 8.88039ZM13.2831 18.1926L12.0353 19.4507C11.7775 19.7085 11.3547 19.7085 11.0866 19.4507C10.8287 19.1929 10.8287 18.7701 11.0866 18.502L12.3447 17.2438C12.5922 16.9963 13.0253 16.9963 13.2831 17.2438C13.5409 17.5016 13.5409 17.9451 13.2831 18.1926ZM17.3772 14.0985L14.8609 16.6251C14.6031 16.8726 14.1803 16.8726 13.9122 16.6251C13.6544 16.3673 13.6544 15.9445 13.9122 15.6763L16.4387 13.1498C16.6862 12.9023 17.1194 12.9023 17.3772 13.1498C17.635 13.4179 17.635 13.8407 17.3772 14.0985Z" fill="white"/>
</svg>
