<svg width="16" height="16" viewBox="0 0 16 16" fill="none" xmlns="http://www.w3.org/2000/svg">
<path d="M14.6673 14.166C14.6673 14.4393 14.4407 14.666 14.1673 14.666H1.83398C1.56065 14.666 1.33398 14.4393 1.33398 14.166C1.33398 13.8927 1.56065 13.666 1.83398 13.666H14.1673C14.4407 13.666 14.6673 13.8927 14.6673 14.166Z" fill="#5071EB"/>
<path d="M10.2596 3.01318L3.09964 10.1732C2.8263 10.4465 2.3863 10.4465 2.11964 10.1732H2.11297C1.1863 9.23984 1.1863 7.73318 2.11297 6.80651L6.87963 2.03984C7.81297 1.10651 9.31964 1.10651 10.253 2.03984C10.5263 2.29984 10.5263 2.74651 10.2596 3.01318Z" fill="#5071EB"/>
<path d="M13.8803 5.66021L11.847 3.62687C11.5736 3.35354 11.1336 3.35354 10.867 3.62687L3.70695 10.7869C3.43362 11.0535 3.43362 11.4935 3.70695 11.7669L5.74029 13.8069C6.67362 14.7335 8.18029 14.7335 9.11362 13.8069L13.8736 9.04021C14.8203 8.10688 14.8203 6.59354 13.8803 5.66021ZM8.50695 11.6802L7.70029 12.4935C7.53362 12.6602 7.26029 12.6602 7.08695 12.4935C6.92029 12.3269 6.92029 12.0535 7.08695 11.8802L7.90029 11.0669C8.06029 10.9069 8.34029 10.9069 8.50695 11.0669C8.67362 11.2335 8.67362 11.5202 8.50695 11.6802ZM11.1536 9.03354L9.52695 10.6669C9.36029 10.8269 9.08695 10.8269 8.91362 10.6669C8.74695 10.5002 8.74695 10.2269 8.91362 10.0535L10.547 8.42021C10.707 8.26021 10.987 8.26021 11.1536 8.42021C11.3203 8.59354 11.3203 8.86688 11.1536 9.03354Z" fill="#5071EB"/>
</svg>
