<svg width="18" height="18" viewBox="0 0 18 18" fill="none" xmlns="http://www.w3.org/2000/svg">
<path d="M2.25 16.5H15.75" stroke="white" stroke-width="1.5" stroke-linecap="round" stroke-linejoin="round"/>
<path d="M4.19998 6.28516H3C2.5875 6.28516 2.25 6.62266 2.25 7.03516V13.5002C2.25 13.9127 2.5875 14.2502 3 14.2502H4.19998C4.61248 14.2502 4.94998 13.9127 4.94998 13.5002V7.03516C4.94998 6.62266 4.61248 6.28516 4.19998 6.28516Z" stroke="white" stroke-width="1.5" stroke-linecap="round" stroke-linejoin="round"/>
<path d="M9.59842 3.89258H8.39844C7.98594 3.89258 7.64844 4.23008 7.64844 4.64258V13.5001C7.64844 13.9126 7.98594 14.2501 8.39844 14.2501H9.59842C10.0109 14.2501 10.3484 13.9126 10.3484 13.5001V4.64258C10.3484 4.23008 10.0109 3.89258 9.59842 3.89258Z" stroke="white" stroke-width="1.5" stroke-linecap="round" stroke-linejoin="round"/>
<path d="M15.0008 1.5H13.8008C13.3883 1.5 13.0508 1.8375 13.0508 2.25V13.5C13.0508 13.9125 13.3883 14.25 13.8008 14.25H15.0008C15.4133 14.25 15.7508 13.9125 15.7508 13.5V2.25C15.7508 1.8375 15.4133 1.5 15.0008 1.5Z" stroke="white" stroke-width="1.5" stroke-linecap="round" stroke-linejoin="round"/>
</svg>
