<svg width="25" height="25" viewBox="0 0 25 25" fill="none" xmlns="http://www.w3.org/2000/svg">
<path d="M11.4688 20.6469V4.35312C11.4688 2.80625 10.8088 2.1875 9.16906 2.1875H5.00281C3.36312 2.1875 2.70312 2.80625 2.70312 4.35312V20.6469C2.70312 22.1938 3.36312 22.8125 5.00281 22.8125H9.16906C10.8088 22.8125 11.4688 22.1938 11.4688 20.6469Z" fill="white"/>
<path d="M22.2969 11.3656V4.35312C22.2969 2.80625 21.6369 2.1875 19.9972 2.1875H15.8309C14.1912 2.1875 13.5312 2.80625 13.5312 4.35312V11.3656C13.5312 12.9125 14.1912 13.5312 15.8309 13.5312H19.9972C21.6369 13.5312 22.2969 12.9125 22.2969 11.3656Z" fill="white"/>
<path d="M22.2969 20.6469V17.7594C22.2969 16.2125 21.6369 15.5938 19.9972 15.5938H15.8309C14.1912 15.5938 13.5312 16.2125 13.5312 17.7594V20.6469C13.5312 22.1937 14.1912 22.8125 15.8309 22.8125H19.9972C21.6369 22.8125 22.2969 22.1937 22.2969 20.6469Z" fill="white"/>
</svg>
