<svg width="23" height="23" viewBox="0 0 23 23" fill="none" xmlns="http://www.w3.org/2000/svg">
<g clip-path="url(#clip0_1741_13378)">
<path d="M11.5 4.79297C7.20114 4.79297 3.3027 7.14492 0.426051 10.9651C0.191316 11.2781 0.191316 11.7153 0.426051 12.0283C3.3027 15.8531 7.20114 18.2051 11.5 18.2051C15.7989 18.2051 19.6973 15.8531 22.5739 12.0329C22.8087 11.7199 22.8087 11.2827 22.5739 10.9697C19.6973 7.14492 15.7989 4.79297 11.5 4.79297ZM11.8084 16.2213C8.95474 16.4008 6.59819 14.0489 6.77769 11.1906C6.92498 8.83409 8.83507 6.92399 11.1916 6.77671C14.0453 6.5972 16.4018 8.94915 16.2223 11.8074C16.0704 14.1593 14.1603 16.0694 11.8084 16.2213ZM11.6657 14.0397C10.1284 14.1363 8.85809 12.8706 8.95934 11.3333C9.03759 10.063 10.0686 9.0366 11.3389 8.95375C12.8762 8.8571 14.1465 10.1228 14.0453 11.6601C13.9624 12.935 12.9314 13.9614 11.6657 14.0397Z" fill="white"/>
</g>
<defs>
<clipPath id="clip0_1741_13378">
<rect width="22.5" height="22.5" fill="white" transform="translate(0.25 0.25)"/>
</clipPath>
</defs>
</svg>
