<svg width="20" height="20" viewBox="0 0 20 20" fill="none" xmlns="http://www.w3.org/2000/svg">
<g clip-path="url(#clip0_1629_2038)">
<path d="M11.6672 10.0018C11.6672 10.9185 10.9172 11.6685 10.0005 11.6685C9.08386 11.6685 8.33386 10.9185 8.33386 10.0018C8.33386 9.08516 9.08386 8.33516 10.0005 8.33516C10.9172 8.33516 11.6672 9.08516 11.6672 10.0018ZM7.64219 5.87682C7.15052 5.38516 6.35886 5.38516 5.87552 5.87682C3.60052 8.15182 3.60052 11.8518 5.87552 14.1268C6.11719 14.3685 6.44219 14.4935 6.75885 14.4935C7.07552 14.4935 7.40052 14.3685 7.64219 14.1268C8.13386 13.6352 8.13386 12.8435 7.64219 12.3602C6.34219 11.0602 6.34219 8.94349 7.64219 7.64349C8.13386 7.15182 8.13386 6.36016 7.64219 5.87682ZM14.1255 5.87682C13.6339 5.38516 12.8422 5.38516 12.3589 5.87682C11.8755 6.36849 11.8672 7.16016 12.3589 7.64349C12.9922 8.27682 13.3339 9.11016 13.3339 10.0018C13.3339 10.8935 12.9839 11.7268 12.3589 12.3602C11.8672 12.8518 11.8672 13.6435 12.3589 14.1268C12.6005 14.3685 12.9255 14.4935 13.2422 14.4935C13.5589 14.4935 13.8839 14.3685 14.1255 14.1268C15.2255 13.0268 15.8339 11.5602 15.8339 10.0018C15.8339 8.44349 15.2255 6.97682 14.1255 5.87682ZM4.70052 4.70182C5.19219 4.21016 5.19219 3.41849 4.70052 2.93516C4.20886 2.44349 3.41719 2.44349 2.93386 2.93516C-0.966145 6.82682 -0.966145 13.1768 2.92552 17.0768C3.16719 17.3185 3.49219 17.4435 3.80886 17.4435C4.12552 17.4435 4.45052 17.3185 4.69219 17.0768C5.18386 16.5852 5.18386 15.7935 4.69219 15.3102C1.76719 12.3852 1.76719 7.62682 4.69219 4.70182H4.70052ZM17.0755 2.93516C16.5839 2.44349 15.7922 2.44349 15.3089 2.93516C14.8172 3.42682 14.8172 4.21849 15.3089 4.70182C18.2339 7.62682 18.2339 12.3852 15.3089 15.3102C14.8172 15.8018 14.8172 16.5935 15.3089 17.0768C15.5505 17.3185 15.8755 17.4435 16.1922 17.4435C16.5089 17.4435 16.8339 17.3185 17.0755 17.0768C20.9755 13.1768 20.9755 6.83516 17.0755 2.93516Z" fill="#BB6400"/>
</g>
<defs>
<clipPath id="clip0_1629_2038">
<rect width="20" height="20" fill="white"/>
</clipPath>
</defs>
</svg>
