<svg width="25" height="25" viewBox="0 0 25 25" fill="none" xmlns="http://www.w3.org/2000/svg">
<path d="M17.325 2.1875H14.6437C11.3437 2.1875 9.28125 4.25 9.28125 7.55V11.7266H13.86L11.7253 9.59188C11.5706 9.43719 11.4984 9.24125 11.4984 9.04531C11.4984 8.84937 11.5706 8.65344 11.7253 8.49875C12.0244 8.19969 12.5194 8.19969 12.8184 8.49875L16.2731 11.9534C16.5722 12.2525 16.5722 12.7475 16.2731 13.0466L12.8184 16.5013C12.5194 16.8003 12.0244 16.8003 11.7253 16.5013C11.4262 16.2022 11.4262 15.7072 11.7253 15.4081L13.86 13.2734H9.28125V17.45C9.28125 20.75 11.3437 22.8125 14.6437 22.8125H17.3147C20.6147 22.8125 22.6772 20.75 22.6772 17.45V7.55C22.6875 4.25 20.625 2.1875 17.325 2.1875Z" fill="white"/>
<path d="M2.83594 11.7266C2.41313 11.7266 2.0625 12.0772 2.0625 12.5C2.0625 12.9228 2.41313 13.2734 2.83594 13.2734H9.28125V11.7266H2.83594Z" fill="white"/>
</svg>
