<svg width="25" height="25" viewBox="0 0 25 25" fill="none" xmlns="http://www.w3.org/2000/svg">
<path d="M21.7709 10.1384C21.4203 9.99406 20.9562 9.92188 20.3787 9.92188H14.9337C13.1394 9.92188 12.5 10.5613 12.5 12.3763V20.3581C12.5 20.9563 12.5722 21.4203 12.7269 21.7812C13.0466 22.5238 13.7272 22.8125 14.9337 22.8125H20.3787C22.1731 22.8125 22.8125 22.1628 22.8125 20.3581V12.3763C22.8125 11.1491 22.5237 10.4581 21.7709 10.1384ZM18.6875 20.4922H16.625C16.6044 20.4922 16.5734 20.4922 16.5528 20.4819C16.3981 20.4716 16.2641 20.42 16.1506 20.3169C15.965 20.1828 15.8516 19.9663 15.8516 19.7188C15.8516 19.2959 16.2022 18.9453 16.625 18.9453H18.6875C19.1103 18.9453 19.4609 19.2959 19.4609 19.7188C19.4609 20.1416 19.1103 20.4922 18.6875 20.4922Z" fill="white"/>
<path d="M21.7704 6.50844V7.34375C21.7704 7.91094 21.3063 8.375 20.7391 8.375H14.9332C12.2932 8.375 10.9526 9.72594 10.9526 12.3763V21.7812C10.9526 22.3484 10.4885 22.8125 9.92133 22.8125H7.91039C7.49789 22.8125 7.16789 22.4825 7.16789 22.0803C7.16789 21.6678 7.49789 21.3481 7.91039 21.3481H9.92133V17.3984H6.31195C4.02258 17.285 2.19727 15.3978 2.19727 13.0775V6.50844C2.19727 4.12625 4.13602 2.1875 6.52852 2.1875H17.4495C19.8316 2.1875 21.7704 4.12625 21.7704 6.50844Z" fill="white"/>
</svg>
