<svg width="20" height="20" viewBox="0 0 20 20" fill="none" xmlns="http://www.w3.org/2000/svg">
<path d="M10.566 16.6298C10.795 16.6831 10.8159 16.983 10.5929 17.0573L9.27626 17.4906C5.96793 18.5573 4.22626 17.6656 3.15126 14.3573L2.08459 11.0656C1.01793 7.75729 1.90126 6.00729 5.20959 4.94062L5.47692 4.85209C5.87979 4.71868 6.27538 5.12404 6.16647 5.53421C6.13579 5.64976 6.10579 5.76856 6.07626 5.89063L5.25959 9.38229C4.34293 13.3073 5.68459 15.474 9.60959 16.4073L10.566 16.6298Z" fill="#5071EB"/>
<path d="M14.3098 2.67639L12.9181 2.35139C10.1348 1.69306 8.47645 2.23472 7.50145 4.25139C7.25145 4.75972 7.05145 5.37639 6.88479 6.08472L6.06812 9.57639C5.25145 13.0597 6.32645 14.7764 9.80145 15.6014L11.2015 15.9347C11.6848 16.0514 12.1348 16.1264 12.5515 16.1597C15.1515 16.4097 16.5348 15.1931 17.2348 12.1847L18.0515 8.70139C18.8681 5.21806 17.8015 3.49306 14.3098 2.67639ZM12.7431 11.1097C12.6681 11.3931 12.4181 11.5764 12.1348 11.5764C12.0848 11.5764 12.0348 11.5681 11.9765 11.5597L9.55145 10.9431C9.21812 10.8597 9.01812 10.5181 9.10145 10.1847C9.18479 9.85139 9.52645 9.65139 9.85979 9.73472L12.2848 10.3514C12.6265 10.4347 12.8265 10.7764 12.7431 11.1097ZM15.1848 8.29306C15.1098 8.57639 14.8598 8.75972 14.5765 8.75972C14.5265 8.75972 14.4765 8.75139 14.4181 8.74306L10.3765 7.71806C10.0431 7.63472 9.84312 7.29306 9.92645 6.95972C10.0098 6.62639 10.3515 6.42639 10.6848 6.50972L14.7265 7.53472C15.0681 7.60972 15.2681 7.95139 15.1848 8.29306Z" fill="#5071EB"/>
</svg>
