<svg width="20" height="20" viewBox="0 0 20 20" fill="none" xmlns="http://www.w3.org/2000/svg">
<path d="M10 5.36719V8.14219" stroke="white" stroke-width="1.2" stroke-miterlimit="10" stroke-linecap="round"/>
<path d="M10.0171 1.66797C6.9504 1.66797 4.46707 4.1513 4.46707 7.21797V8.96797C4.46707 9.53464 4.23374 10.3846 3.94207 10.868L2.88374 12.6346C2.23374 13.7263 2.68374 14.943 3.88374 15.343C7.86707 16.668 12.1754 16.668 16.1587 15.343C17.2837 14.968 17.7671 13.6513 17.1587 12.6346L16.1004 10.868C15.8087 10.3846 15.5754 9.5263 15.5754 8.96797V7.21797C15.5671 4.16797 13.0671 1.66797 10.0171 1.66797Z" stroke="white" stroke-width="1.2" stroke-miterlimit="10" stroke-linecap="round"/>
<path d="M12.7746 15.6836C12.7746 17.2086 11.5246 18.4586 9.99961 18.4586C9.24128 18.4586 8.54128 18.1419 8.04128 17.6419C7.54128 17.1419 7.22461 16.4419 7.22461 15.6836" stroke="white" stroke-width="1.2" stroke-miterlimit="10"/>
</svg>
