<svg width="20" height="20" viewBox="0 0 20 20" fill="none" xmlns="http://www.w3.org/2000/svg">
<path d="M1.66797 7.5013V5.41797C1.66797 3.34297 3.34297 1.66797 5.41797 1.66797H7.5013" stroke="#5071EB" stroke-width="1.5" stroke-linecap="round" stroke-linejoin="round"/>
<path d="M12.5 1.66797H14.5833C16.6583 1.66797 18.3333 3.34297 18.3333 5.41797V7.5013" stroke="#5071EB" stroke-width="1.5" stroke-linecap="round" stroke-linejoin="round"/>
<path d="M18.332 13.332V14.582C18.332 16.657 16.657 18.332 14.582 18.332H13.332" stroke="#5071EB" stroke-width="1.5" stroke-linecap="round" stroke-linejoin="round"/>
<path d="M7.5013 18.3333H5.41797C3.34297 18.3333 1.66797 16.6583 1.66797 14.5833V12.5" stroke="#5071EB" stroke-width="1.5" stroke-linecap="round" stroke-linejoin="round"/>
<path d="M8.7487 5.83203V7.4987C8.7487 8.33203 8.33203 8.7487 7.4987 8.7487H5.83203C4.9987 8.7487 4.58203 8.33203 4.58203 7.4987V5.83203C4.58203 4.9987 4.9987 4.58203 5.83203 4.58203H7.4987C8.33203 4.58203 8.7487 4.9987 8.7487 5.83203Z" stroke="#5071EB" stroke-width="1.5" stroke-linecap="round" stroke-linejoin="round"/>
<path d="M15.4167 5.83203V7.4987C15.4167 8.33203 15 8.7487 14.1667 8.7487H12.5C11.6667 8.7487 11.25 8.33203 11.25 7.4987V5.83203C11.25 4.9987 11.6667 4.58203 12.5 4.58203H14.1667C15 4.58203 15.4167 4.9987 15.4167 5.83203Z" stroke="#5071EB" stroke-width="1.5" stroke-linecap="round" stroke-linejoin="round"/>
<path d="M8.7487 12.5V14.1667C8.7487 15 8.33203 15.4167 7.4987 15.4167H5.83203C4.9987 15.4167 4.58203 15 4.58203 14.1667V12.5C4.58203 11.6667 4.9987 11.25 5.83203 11.25H7.4987C8.33203 11.25 8.7487 11.6667 8.7487 12.5Z" stroke="#5071EB" stroke-width="1.5" stroke-linecap="round" stroke-linejoin="round"/>
<path d="M15.4167 12.5V14.1667C15.4167 15 15 15.4167 14.1667 15.4167H12.5C11.6667 15.4167 11.25 15 11.25 14.1667V12.5C11.25 11.6667 11.6667 11.25 12.5 11.25H14.1667C15 11.25 15.4167 11.6667 15.4167 12.5Z" stroke="#5071EB" stroke-width="1.5" stroke-linecap="round" stroke-linejoin="round"/>
</svg>
