<svg width="20" height="20" viewBox="0 0 20 20" fill="none" xmlns="http://www.w3.org/2000/svg">
<path d="M1.66602 7.49935V5.41602C1.66602 3.34102 3.34102 1.66602 5.41602 1.66602H7.49935" stroke="#5071EB" stroke-width="1.5" stroke-linecap="round" stroke-linejoin="round"/>
<path d="M12.5 1.66602H14.5833C16.6583 1.66602 18.3333 3.34102 18.3333 5.41602V7.49935" stroke="#5071EB" stroke-width="1.5" stroke-linecap="round" stroke-linejoin="round"/>
<path d="M18.334 13.334V14.584C18.334 16.659 16.659 18.334 14.584 18.334H13.334" stroke="#5071EB" stroke-width="1.5" stroke-linecap="round" stroke-linejoin="round"/>
<path d="M7.49935 18.3333H5.41602C3.34102 18.3333 1.66602 16.6583 1.66602 14.5833V12.5" stroke="#5071EB" stroke-width="1.5" stroke-linecap="round" stroke-linejoin="round"/>
<path d="M8.75065 5.83398V7.50065C8.75065 8.33398 8.33398 8.75065 7.50065 8.75065H5.83398C5.00065 8.75065 4.58398 8.33398 4.58398 7.50065V5.83398C4.58398 5.00065 5.00065 4.58398 5.83398 4.58398H7.50065C8.33398 4.58398 8.75065 5.00065 8.75065 5.83398Z" stroke="#5071EB" stroke-width="1.5" stroke-linecap="round" stroke-linejoin="round"/>
<path d="M15.4167 5.83398V7.50065C15.4167 8.33398 15 8.75065 14.1667 8.75065H12.5C11.6667 8.75065 11.25 8.33398 11.25 7.50065V5.83398C11.25 5.00065 11.6667 4.58398 12.5 4.58398H14.1667C15 4.58398 15.4167 5.00065 15.4167 5.83398Z" stroke="#5071EB" stroke-width="1.5" stroke-linecap="round" stroke-linejoin="round"/>
<path d="M8.75065 12.5V14.1667C8.75065 15 8.33398 15.4167 7.50065 15.4167H5.83398C5.00065 15.4167 4.58398 15 4.58398 14.1667V12.5C4.58398 11.6667 5.00065 11.25 5.83398 11.25H7.50065C8.33398 11.25 8.75065 11.6667 8.75065 12.5Z" stroke="#5071EB" stroke-width="1.5" stroke-linecap="round" stroke-linejoin="round"/>
<path d="M15.4167 12.5V14.1667C15.4167 15 15 15.4167 14.1667 15.4167H12.5C11.6667 15.4167 11.25 15 11.25 14.1667V12.5C11.25 11.6667 11.6667 11.25 12.5 11.25H14.1667C15 11.25 15.4167 11.6667 15.4167 12.5Z" stroke="#5071EB" stroke-width="1.5" stroke-linecap="round" stroke-linejoin="round"/>
</svg>
