<svg width="18" height="18" viewBox="0 0 18 18" fill="none" xmlns="http://www.w3.org/2000/svg">
<path d="M1.5 6.75V4.875C1.5 3.0075 3.0075 1.5 4.875 1.5H6.75" stroke="#546881" stroke-width="1.5" stroke-linecap="round" stroke-linejoin="round"/>
<path d="M11.25 1.5H13.125C14.9925 1.5 16.5 3.0075 16.5 4.875V6.75" stroke="#546881" stroke-width="1.5" stroke-linecap="round" stroke-linejoin="round"/>
<path d="M16.5 12V13.125C16.5 14.9925 14.9925 16.5 13.125 16.5H12" stroke="#546881" stroke-width="1.5" stroke-linecap="round" stroke-linejoin="round"/>
<path d="M6.75 16.5H4.875C3.0075 16.5 1.5 14.9925 1.5 13.125V11.25" stroke="#546881" stroke-width="1.5" stroke-linecap="round" stroke-linejoin="round"/>
<path d="M7.875 5.25V6.75C7.875 7.5 7.5 7.875 6.75 7.875H5.25C4.5 7.875 4.125 7.5 4.125 6.75V5.25C4.125 4.5 4.5 4.125 5.25 4.125H6.75C7.5 4.125 7.875 4.5 7.875 5.25Z" stroke="#546881" stroke-width="1.5" stroke-linecap="round" stroke-linejoin="round"/>
<path d="M13.875 5.25V6.75C13.875 7.5 13.5 7.875 12.75 7.875H11.25C10.5 7.875 10.125 7.5 10.125 6.75V5.25C10.125 4.5 10.5 4.125 11.25 4.125H12.75C13.5 4.125 13.875 4.5 13.875 5.25Z" stroke="#546881" stroke-width="1.5" stroke-linecap="round" stroke-linejoin="round"/>
<path d="M7.875 11.25V12.75C7.875 13.5 7.5 13.875 6.75 13.875H5.25C4.5 13.875 4.125 13.5 4.125 12.75V11.25C4.125 10.5 4.5 10.125 5.25 10.125H6.75C7.5 10.125 7.875 10.5 7.875 11.25Z" stroke="#546881" stroke-width="1.5" stroke-linecap="round" stroke-linejoin="round"/>
<path d="M13.875 11.25V12.75C13.875 13.5 13.5 13.875 12.75 13.875H11.25C10.5 13.875 10.125 13.5 10.125 12.75V11.25C10.125 10.5 10.5 10.125 11.25 10.125H12.75C13.5 10.125 13.875 10.5 13.875 11.25Z" stroke="#546881" stroke-width="1.5" stroke-linecap="round" stroke-linejoin="round"/>
</svg>
