<svg width="18" height="18" viewBox="0 0 18 18" fill="none" xmlns="http://www.w3.org/2000/svg">
<path d="M15.6814 8.34022C15.6814 12.0077 13.0189 15.4427 9.38142 16.4477C9.13392 16.5152 8.8639 16.5152 8.6164 16.4477C4.9789 15.4427 2.31641 12.0077 2.31641 8.34022V5.04771C2.31641 4.43271 2.78142 3.73521 3.35892 3.50271L7.5364 1.79273C8.4739 1.41023 9.5314 1.41023 10.4689 1.79273L14.6464 3.50271C15.2164 3.73521 15.6889 4.43271 15.6889 5.04771L15.6814 8.34022Z" stroke="white" stroke-width="1.5" stroke-linecap="round" stroke-linejoin="round"/>
<path d="M9 9.375C9.82843 9.375 10.5 8.70343 10.5 7.875C10.5 7.04657 9.82843 6.375 9 6.375C8.17157 6.375 7.5 7.04657 7.5 7.875C7.5 8.70343 8.17157 9.375 9 9.375Z" stroke="white" stroke-width="1.5" stroke-miterlimit="10" stroke-linecap="round" stroke-linejoin="round"/>
<path d="M9 9.375V11.625" stroke="white" stroke-width="1.5" stroke-miterlimit="10" stroke-linecap="round" stroke-linejoin="round"/>
</svg>
