<svg width="18" height="18" viewBox="0 0 18 18" fill="none" xmlns="http://www.w3.org/2000/svg">
<g clip-path="url(#clip0_1659_3634)">
<path d="M10.5013 9.00047C10.5013 9.82547 9.82625 10.5005 9.00125 10.5005C8.17625 10.5005 7.50125 9.82547 7.50125 9.00047C7.50125 8.17547 8.17625 7.50047 9.00125 7.50047C9.82625 7.50047 10.5013 8.17547 10.5013 9.00047ZM6.87875 5.28797C6.43625 4.84547 5.72375 4.84547 5.28875 5.28797C3.24125 7.33547 3.24125 10.6655 5.28875 12.713C5.50625 12.9305 5.79875 13.043 6.08375 13.043C6.36875 13.043 6.66125 12.9305 6.87875 12.713C7.32125 12.2705 7.32125 11.558 6.87875 11.123C5.70875 9.95297 5.70875 8.04797 6.87875 6.87797C7.32125 6.43547 7.32125 5.72297 6.87875 5.28797ZM12.7138 5.28797C12.2713 4.84547 11.5588 4.84547 11.1238 5.28797C10.6888 5.73047 10.6813 6.44297 11.1238 6.87797C11.6938 7.44797 12.0013 8.19797 12.0013 9.00047C12.0013 9.80297 11.6863 10.553 11.1238 11.123C10.6813 11.5655 10.6813 12.278 11.1238 12.713C11.3413 12.9305 11.6338 13.043 11.9188 13.043C12.2038 13.043 12.4963 12.9305 12.7138 12.713C13.7038 11.723 14.2513 10.403 14.2513 9.00047C14.2513 7.59797 13.7038 6.27797 12.7138 5.28797ZM4.23125 4.23047C4.67375 3.78797 4.67375 3.07547 4.23125 2.64047C3.78875 2.19797 3.07625 2.19797 2.64125 2.64047C-0.868749 6.14297 -0.868749 11.858 2.63375 15.368C2.85125 15.5855 3.14375 15.698 3.42875 15.698C3.71375 15.698 4.00625 15.5855 4.22375 15.368C4.66625 14.9255 4.66625 14.213 4.22375 13.778C1.59125 11.1455 1.59125 6.86297 4.22375 4.23047H4.23125ZM15.3688 2.64047C14.9263 2.19797 14.2138 2.19797 13.7788 2.64047C13.3363 3.08297 13.3363 3.79547 13.7788 4.23047C16.4113 6.86297 16.4113 11.1455 13.7788 13.778C13.3363 14.2205 13.3363 14.933 13.7788 15.368C13.9963 15.5855 14.2888 15.698 14.5738 15.698C14.8588 15.698 15.1513 15.5855 15.3688 15.368C18.8787 11.858 18.8787 6.15047 15.3688 2.64047Z" fill="#5071EB"/>
</g>
<defs>
<clipPath id="clip0_1659_3634">
<rect width="18" height="18" fill="white"/>
</clipPath>
</defs>
</svg>
