<svg width="16" height="16" viewBox="0 0 16 16" fill="none" xmlns="http://www.w3.org/2000/svg">
<path d="M11.2194 10.4268C11.6661 10.1334 12.2528 10.4534 12.2528 10.9868V11.8468C12.2528 12.6934 11.5928 13.6001 10.7994 13.8668L8.67276 14.5734C8.29943 14.7001 7.69276 14.7001 7.32609 14.5734L5.19943 13.8668C4.39943 13.6001 3.74609 12.6934 3.74609 11.8468V10.9801C3.74609 10.4534 4.33276 10.1334 4.77276 10.4201L6.14609 11.3134C6.67276 11.6668 7.33943 11.8401 8.00609 11.8401C8.67276 11.8401 9.33943 11.6668 9.86609 11.3134L11.2194 10.4268Z" fill="#5071EB"/>
<path d="M13.321 4.30703L9.32766 1.68703C8.60766 1.2137 7.42099 1.2137 6.70099 1.68703L2.68766 4.30703C1.40099 5.14036 1.40099 7.02703 2.68766 7.86703L3.75432 8.56036L6.70099 10.4804C7.42099 10.9537 8.60766 10.9537 9.32766 10.4804L12.2543 8.56036L13.1677 7.96036V10.0004C13.1677 10.2737 13.3943 10.5004 13.6677 10.5004C13.941 10.5004 14.1677 10.2737 14.1677 10.0004V6.72036C14.4343 5.86036 14.161 4.86036 13.321 4.30703Z" fill="#5071EB"/>
</svg>
