<svg width="20" height="20" viewBox="0 0 20 20" fill="none" xmlns="http://www.w3.org/2000/svg">
<path d="M9.9987 10.0013C12.2999 10.0013 14.1654 8.13582 14.1654 5.83464C14.1654 3.53345 12.2999 1.66797 9.9987 1.66797C7.69751 1.66797 5.83203 3.53345 5.83203 5.83464C5.83203 8.13582 7.69751 10.0013 9.9987 10.0013Z" stroke="#E31E25" stroke-width="1.5" stroke-linecap="round" stroke-linejoin="round"/>
<path d="M2.83984 18.3333C2.83984 15.1083 6.0482 12.5 9.9982 12.5C10.7982 12.5 11.5732 12.6083 12.2982 12.8083" stroke="#E31E25" stroke-width="1.5" stroke-linecap="round" stroke-linejoin="round"/>
<path d="M18.3346 15.0013C18.3346 15.268 18.3013 15.5263 18.2346 15.7763C18.1596 16.1096 18.0263 16.4346 17.8513 16.718C17.2763 17.6846 16.218 18.3346 15.0013 18.3346C14.143 18.3346 13.368 18.0096 12.7847 17.4763C12.5347 17.2596 12.318 17.0013 12.1513 16.718C11.843 16.218 11.668 15.6263 11.668 15.0013C11.668 14.1013 12.0263 13.2763 12.6096 12.6763C13.218 12.0513 14.068 11.668 15.0013 11.668C15.9846 11.668 16.8763 12.093 17.4763 12.7763C18.0096 13.368 18.3346 14.1513 18.3346 15.0013Z" stroke="#E31E25" stroke-width="1.5" stroke-miterlimit="10" stroke-linecap="round" stroke-linejoin="round"/>
<path d="M16.2411 14.9844H13.7578" stroke="#E31E25" stroke-width="1.5" stroke-miterlimit="10" stroke-linecap="round" stroke-linejoin="round"/>
</svg>
