<svg width="20" height="20" viewBox="0 0 20 20" fill="none" xmlns="http://www.w3.org/2000/svg">
<path d="M15.0004 5.96797C14.9504 5.95964 14.8921 5.95964 14.8421 5.96797C13.6921 5.92631 12.7754 4.98464 12.7754 3.81797C12.7754 2.6263 13.7337 1.66797 14.9254 1.66797C16.1171 1.66797 17.0754 2.63464 17.0754 3.81797C17.0671 4.98464 16.1504 5.92631 15.0004 5.96797Z" stroke="#5071EB" stroke-width="1.5" stroke-linecap="round" stroke-linejoin="round"/>
<path d="M14.1422 12.0348C15.2839 12.2264 16.5422 12.0264 17.4255 11.4348C18.6005 10.6514 18.6005 9.3681 17.4255 8.58477C16.5339 7.9931 15.2589 7.7931 14.1172 7.9931" stroke="#5071EB" stroke-width="1.5" stroke-linecap="round" stroke-linejoin="round"/>
<path d="M4.97344 5.96797C5.02344 5.95964 5.08177 5.95964 5.13177 5.96797C6.28177 5.92631 7.19844 4.98464 7.19844 3.81797C7.19844 2.6263 6.24011 1.66797 5.04844 1.66797C3.85677 1.66797 2.89844 2.63464 2.89844 3.81797C2.90677 4.98464 3.82344 5.92631 4.97344 5.96797Z" stroke="#5071EB" stroke-width="1.5" stroke-linecap="round" stroke-linejoin="round"/>
<path d="M5.83255 12.0348C4.69088 12.2264 3.43255 12.0264 2.54922 11.4348C1.37422 10.6514 1.37422 9.3681 2.54922 8.58477C3.44089 7.9931 4.71588 7.7931 5.85755 7.9931" stroke="#5071EB" stroke-width="1.5" stroke-linecap="round" stroke-linejoin="round"/>
<path d="M10.0004 12.1906C9.95039 12.1823 9.89206 12.1823 9.84206 12.1906C8.69206 12.149 7.77539 11.2073 7.77539 10.0406C7.77539 8.84896 8.73372 7.89062 9.92539 7.89062C11.1171 7.89062 12.0754 8.85729 12.0754 10.0406C12.0671 11.2073 11.1504 12.1573 10.0004 12.1906Z" stroke="#5071EB" stroke-width="1.5" stroke-linecap="round" stroke-linejoin="round"/>
<path d="M7.57461 14.8148C6.39961 15.5982 6.39961 16.8815 7.57461 17.6648C8.90794 18.5565 11.0913 18.5565 12.4246 17.6648C13.5996 16.8815 13.5996 15.5982 12.4246 14.8148C11.0996 13.9315 8.90794 13.9315 7.57461 14.8148Z" stroke="#5071EB" stroke-width="1.5" stroke-linecap="round" stroke-linejoin="round"/>
</svg>
