<svg width="21" height="20" viewBox="0 0 21 20" fill="none" xmlns="http://www.w3.org/2000/svg">
<g clip-path="url(#clip0_1480_13820)">
<path d="M10.4227 15.5023C10.043 15.5023 10.0172 15.4973 9.97227 15.4891C9.8375 15.4643 9.71568 15.3931 9.62797 15.2878C9.54026 15.1826 9.49222 15.0499 9.49219 14.9129V11.3359C9.49219 11.1805 9.55392 11.0315 9.6638 10.9216C9.77369 10.8117 9.92272 10.75 10.0781 10.75C10.2335 10.75 10.3826 10.8117 10.4924 10.9216C10.6023 11.0315 10.6641 11.1805 10.6641 11.3359V14.3297L11.2383 14.327H11.2418C11.3972 14.3265 11.5464 14.3878 11.6566 14.4973C11.7668 14.6069 11.829 14.7557 11.8295 14.9111C11.83 15.0665 11.7687 15.2158 11.6591 15.326C11.5496 15.4362 11.4007 15.4984 11.2453 15.4988C10.8641 15.5012 10.6035 15.5023 10.4227 15.5023Z" fill="#3D4C5E"/>
<path d="M14.2788 15.5008C13.6268 15.5008 13.0139 15.2371 12.5971 14.7777C12.5455 14.7207 12.5055 14.6541 12.4796 14.5816C12.4536 14.5091 12.4422 14.4323 12.446 14.3554C12.4498 14.2786 12.4687 14.2032 12.5016 14.1336C12.5345 14.0641 12.5807 14.0017 12.6378 13.95C12.6948 13.8983 12.7614 13.8583 12.8339 13.8324C12.9063 13.8065 12.9832 13.7951 13.06 13.7989C13.1369 13.8026 13.2123 13.8215 13.2818 13.8544C13.3514 13.8873 13.4138 13.9336 13.4655 13.9906C13.6577 14.2023 13.9616 14.3289 14.2788 14.3289C14.5768 14.3289 14.7475 14.1539 14.7678 14.0359C14.7917 13.9023 14.5776 13.773 14.387 13.7027C13.8276 13.4965 13.3303 13.275 13.3096 13.2656C13.2814 13.2531 13.2543 13.2383 13.2284 13.2215C13.022 13.0883 12.8585 12.8983 12.7576 12.6744C12.6566 12.4505 12.6225 12.2022 12.6592 11.9594C12.7374 11.4273 13.1225 10.9945 13.669 10.8301C14.5065 10.5777 15.2862 10.9781 15.6147 11.2543L14.8608 12.1527L14.8655 12.1566C14.8612 12.1535 14.4428 11.8222 14.0061 11.9535C13.8983 11.9863 13.8296 12.0496 13.8186 12.1277C13.8151 12.1446 13.8157 12.162 13.8203 12.1786C13.8249 12.1952 13.8335 12.2104 13.8452 12.223C13.9893 12.2859 14.3768 12.4519 14.7917 12.6047C15.7753 12.9676 16.0198 13.689 15.921 14.2433C15.7913 14.9711 15.1007 15.5008 14.2788 15.5008Z" fill="#3D4C5E"/>
<path d="M8.33048 15.5019C8.23643 15.502 8.14373 15.4794 8.06024 15.4361C7.97675 15.3928 7.90491 15.33 7.8508 15.2531L5.33244 11.673C5.2863 11.6102 5.25315 11.5388 5.23495 11.463C5.21675 11.3872 5.21385 11.3085 5.22643 11.2316C5.23901 11.1547 5.26681 11.081 5.30821 11.015C5.3496 10.949 5.40376 10.8918 5.46751 10.847C5.53126 10.8021 5.60332 10.7704 5.67946 10.7538C5.75561 10.7371 5.83432 10.7358 5.91097 10.75C5.98763 10.7641 6.06069 10.7934 6.12588 10.8361C6.19108 10.8788 6.24709 10.9342 6.29064 10.9988L8.809 14.5789C8.8707 14.6666 8.90714 14.7695 8.91436 14.8765C8.92158 14.9835 8.8993 15.0905 8.84994 15.1857C8.80059 15.2809 8.72605 15.3607 8.63446 15.4165C8.54286 15.4722 8.43772 15.5018 8.33048 15.5019Z" fill="#3D4C5E"/>
<path d="M5.63314 15.5021C5.52577 15.5021 5.42045 15.4727 5.32868 15.4169C5.23691 15.3612 5.16222 15.2813 5.11275 15.186C5.06329 15.0908 5.04097 14.9837 5.04821 14.8766C5.05546 14.7695 5.092 14.6664 5.15384 14.5786L7.67571 10.9985C7.72003 10.9356 7.77631 10.8821 7.84134 10.8409C7.90636 10.7997 7.97886 10.7718 8.05469 10.7586C8.13052 10.7455 8.20819 10.7474 8.28328 10.7643C8.35837 10.7811 8.4294 10.8126 8.49231 10.8569C8.55523 10.9013 8.6088 10.9575 8.64997 11.0226C8.69113 11.0876 8.71909 11.1601 8.73224 11.2359C8.74539 11.3117 8.74347 11.3894 8.7266 11.4645C8.70973 11.5396 8.67824 11.6106 8.63392 11.6735L6.11204 15.2536C6.05796 15.3304 5.98623 15.393 5.90288 15.4362C5.81954 15.4795 5.72703 15.502 5.63314 15.5021Z" fill="#3D4C5E"/>
<path d="M16.3055 20H4.68516C4.32438 19.9997 3.97846 19.8563 3.72331 19.6012C3.46816 19.3461 3.32463 19.0002 3.32422 18.6395V17.0332C3.32422 16.8778 3.38595 16.7288 3.49584 16.6189C3.60572 16.509 3.75476 16.4473 3.91016 16.4473C4.06556 16.4473 4.21459 16.509 4.32448 16.6189C4.43436 16.7288 4.49609 16.8778 4.49609 17.0332V18.6395C4.4962 18.6895 4.51616 18.7375 4.55161 18.7729C4.58705 18.8083 4.63508 18.8281 4.68516 18.8281H16.3062C16.3563 18.8281 16.4044 18.8083 16.4398 18.7729C16.4752 18.7375 16.4952 18.6895 16.4953 18.6395V17.0332C16.4953 16.8778 16.557 16.7288 16.6669 16.6189C16.7768 16.509 16.9258 16.4473 17.0812 16.4473C17.2367 16.4473 17.3857 16.509 17.4956 16.6189C17.6055 16.7288 17.6672 16.8778 17.6672 17.0332V18.6395C17.6668 19.0004 17.5231 19.3464 17.2678 19.6015C17.0125 19.8566 16.6664 19.9999 16.3055 20Z" fill="#3D4C5E"/>
<path d="M17.0805 10.0359C16.9251 10.0359 16.776 9.97421 16.6661 9.86432C16.5563 9.75444 16.4945 9.6054 16.4945 9.45V4.64532C16.4943 4.59505 16.4742 4.5469 16.4387 4.51133L13.1664 1.22657C13.149 1.20914 13.1283 1.19533 13.1055 1.18594C13.0827 1.17656 13.0582 1.17178 13.0336 1.17188H4.68516C4.63508 1.17188 4.58705 1.19175 4.55161 1.22712C4.51616 1.26249 4.4962 1.31048 4.49609 1.36055V9.45C4.49609 9.6054 4.43436 9.75444 4.32448 9.86432C4.21459 9.97421 4.06556 10.0359 3.91016 10.0359C3.75476 10.0359 3.60572 9.97421 3.49584 9.86432C3.38595 9.75444 3.32422 9.6054 3.32422 9.45V1.36055C3.32463 0.999772 3.46816 0.653892 3.72331 0.398819C3.97846 0.143745 4.32438 0.000315154 4.68516 4.99776e-06H13.0336C13.2123 -0.000481003 13.3894 0.034483 13.5545 0.102874C13.7197 0.171265 13.8696 0.271725 13.9957 0.398442L17.2688 3.68321C17.3951 3.80934 17.4953 3.9592 17.5635 4.12418C17.6318 4.28916 17.6667 4.466 17.6664 4.64454V9.44922C17.6665 9.52624 17.6514 9.60251 17.622 9.67369C17.5926 9.74487 17.5495 9.80956 17.4951 9.86405C17.4406 9.91854 17.376 9.96177 17.3049 9.99127C17.2337 10.0208 17.1575 10.0359 17.0805 10.0359Z" fill="#3D4C5E"/>
<path d="M17.5246 17.6184H3.47266C3.00646 17.6184 2.55935 17.4332 2.2297 17.1035C1.90004 16.7739 1.71484 16.3267 1.71484 15.8605V10.6211C1.71536 10.1551 1.90072 9.70825 2.23027 9.3787C2.55981 9.04916 3.00661 8.8638 3.47266 8.86328H17.5246C17.9908 8.86328 18.4379 9.04848 18.7676 9.37813C19.0972 9.70779 19.2824 10.1549 19.2824 10.6211V15.8605C19.2824 16.3267 19.0972 16.7739 18.7676 17.1035C18.4379 17.4332 17.9908 17.6184 17.5246 17.6184ZM3.47266 10.0352C3.31726 10.0352 3.16822 10.0969 3.05834 10.2068C2.94845 10.3167 2.88672 10.4657 2.88672 10.6211V15.8605C2.88672 16.0159 2.94845 16.165 3.05834 16.2749C3.16822 16.3848 3.31726 16.4465 3.47266 16.4465H17.5246C17.68 16.4465 17.829 16.3848 17.9389 16.2749C18.0488 16.165 18.1105 16.0159 18.1105 15.8605V10.6211C18.1105 10.4657 18.0488 10.3167 17.9389 10.2068C17.829 10.0969 17.68 10.0352 17.5246 10.0352H3.47266Z" fill="#3D4C5E"/>
</g>
<defs>
<clipPath id="clip0_1480_13820">
<rect width="20" height="20" fill="white" transform="translate(0.5)"/>
</clipPath>
</defs>
</svg>
