<svg width="18" height="14" viewBox="0 0 18 14" fill="none" xmlns="http://www.w3.org/2000/svg">
<path d="M14.5612 0.605469H3.43512C2.9905 0.605469 2.55023 0.693082 2.13948 0.863301C1.72872 1.03352 1.35554 1.28301 1.04124 1.59751C0.726947 1.91201 0.477705 2.28536 0.307757 2.69623C0.13781 3.10709 0.0504881 3.54742 0.050782 3.99205V10.0092C0.0504881 10.4538 0.13781 10.8941 0.307757 11.305C0.477705 11.7158 0.726947 12.0892 1.04124 12.4037C1.35554 12.7182 1.72872 12.9677 2.13948 13.1379C2.55023 13.3081 2.9905 13.3957 3.43512 13.3957H14.5612C15.0058 13.3957 15.4461 13.3081 15.8568 13.1379C16.2676 12.9677 16.6408 12.7182 16.9551 12.4037C17.2694 12.0892 17.5186 11.7158 17.6885 11.305C17.8585 10.8941 17.9458 10.4538 17.9455 10.0092V3.99205C17.9458 3.54742 17.8585 3.10709 17.6885 2.69623C17.5186 2.28536 17.2694 1.91201 16.9551 1.59751C16.6408 1.28301 16.2676 1.03352 15.8568 0.863301C15.4461 0.693082 15.0058 0.605469 14.5612 0.605469ZM6.64052 9.74297V4.25823L11.3558 7.0006L6.64052 9.74297Z" fill="white"/>
</svg>
